<svg xmlns="http://www.w3.org/2000/svg" xmlns:xlink="http://www.w3.org/1999/xlink" viewBox="0 0 557.78 341.74"><defs><style>.cls-1{fill:none;}.cls-2{fill:#1c75bc;}.cls-3{clip-path:url(#clip-path);}</style><clipPath id="clip-path" transform="translate(0 7.31)"><path class="cls-1" d="M31.06,134.71v86.71q0,19.47-.27,25a25.64,25.64,0,0,1-2.44,10.06,12.47,12.47,0,0,1-5.89,6.21q-3.71,1.72-11.19,1.72H0V241.77a26.23,26.23,0,0,0,2.94.25,4.58,4.58,0,0,0,3.8-1.77,7.86,7.86,0,0,0,1.6-4.33c.14-1.7.21-5,.21-9.93V134.71Zm60.14,76q0,19.56-.62,27.69a41,41,0,0,1-3.85,14.86A24.79,24.79,0,0,1,78,263.57a22.82,22.82,0,0,1-12.83,3.61,23.34,23.34,0,0,1-12.48-3.41,24.14,24.14,0,0,1-8.9-10.22,40.52,40.52,0,0,1-4-14.82q-.65-8-.64-28v-22.2q0-19.54.62-27.68a41.14,41.14,0,0,1,3.84-14.87,24.89,24.89,0,0,1,8.74-10.33A22.84,22.84,0,0,1,65.16,132a23.35,23.35,0,0,1,12.49,3.41,24.17,24.17,0,0,1,8.9,10.21,40.58,40.58,0,0,1,4,14.83q.63,8,.64,28ZM68.69,168.05q0-9.06-.67-11.58c-.44-1.68-1.36-2.52-2.75-2.52a2.94,2.94,0,0,0-2.7,2q-.93,2-.93,12.06v60.58c0,7.54.2,12.18.61,14s1.36,2.64,2.86,2.64,2.51-1,2.94-3,.64-6.87.64-14.51Zm30.9-33.34H122q10.65,0,16.12,2.49T147,147.25q3.36,7.56,3.37,24.38,0,11.37-2.38,15.86t-9.38,6.88q7.8,2.65,10.58,8.78T152,222v12q0,13.16-2,19.49t-6.39,8.66q-4.38,2.33-18,2.32h-26Zm22.51,22.2v28.85c1,0,1.71-.08,2.24-.08q3.31,0,4.23-2.44t.9-14a33.15,33.15,0,0,0-.74-8.53c-.5-1.63-1.15-2.66-2-3.09A12.16,12.16,0,0,0,122.1,156.91Zm0,49v36.31q4.75-.24,6.07-2.25c.87-1.33,1.3-4.62,1.3-9.85V218.05c0-5.55-.39-8.92-1.17-10.09S125.45,206.11,122.1,206Zm89.43,58.5v15.71h-17c-4.1,0-7-.47-8.66-1.42a7.18,7.18,0,0,1-3.39-4.22c-.59-1.87-.88-5.22-.88-10.07a18.78,18.78,0,0,1-13.15-6A28.22,28.22,0,0,1,161.17,244q-1.75-8.78-1.76-26.25V177.59a146.61,146.61,0,0,1,1-20.16,40.41,40.41,0,0,1,4.31-13.06,23.33,23.33,0,0,1,8.39-9.26A21.5,21.5,0,0,1,184.54,132,24.12,24.12,0,0,1,198,135.83a24.44,24.44,0,0,1,8.82,9.78,40.33,40.33,0,0,1,3.8,12.3,151.37,151.37,0,0,1,.88,18.94V219q0,17.3-1.12,23.47a18.38,18.38,0,0,1-12.78,15.38q.16,4.35,1.2,5.49c.7.75,2.34,1.12,4.95,1.12ZM189,168.05q0-9.06-.67-11.58c-.44-1.68-1.36-2.52-2.75-2.52a2.94,2.94,0,0,0-2.7,2q-.93,2-.93,12.06v60.58c0,7.54.2,12.18.61,14s1.36,2.64,2.86,2.64,2.51-1,2.94-3,.64-6.87.64-14.51ZM397,0,271,221.42q0,14.75-.64,20.72a35.9,35.9,0,0,1-3.8,12.26,23.14,23.14,0,0,1-8.31,9.53,22.3,22.3,0,0,1-12.16,3.25,24.57,24.57,0,0,1-13.69-3.85,24.12,24.12,0,0,1-8.87-10,36.69,36.69,0,0,1-3.48-13q-.53-6.85-.53-28.81V134.71h22.51V232q0,8.49.61,10.86c.41,1.57,1.24,2.36,2.49,2.36,1.42,0,2.34-.87,2.75-2.6s.61-5.84.61-12.3L44.55,20.24ZM279.74,134.71h37.53v26h-15v24.6h14.06V210H302.25v28.53h16.52v26h-39ZM372.92,174H352v-9.62q0-6.72-.8-8.57a2.75,2.75,0,0,0-2.68-1.84c-1.35,0-2.37.83-3.07,2.48a20.71,20.71,0,0,0-1,7.54,30.89,30.89,0,0,0,1.17,9.78q1.13,3.3,6.36,7.94,15,13.37,18.93,21.94t3.9,27.65q0,13.86-2.16,20.43a21.87,21.87,0,0,1-8.37,11,25.7,25.7,0,0,1-29.86-.68A23.71,23.71,0,0,1,326,249q-2-7.94-2-22.52V218H345v15.79c0,4.86.3,8,.88,9.38a3.15,3.15,0,0,0,3.13,2.08c1.5,0,2.61-.88,3.34-2.64a21.57,21.57,0,0,0,1.1-7.86q0-11.46-2.09-15T340.79,208q-8.39-8.34-11.12-12.1a32.2,32.2,0,0,1-4.51-10.42,66.62,66.62,0,0,1-1.79-17q0-14.91,2.53-21.8a21.86,21.86,0,0,1,8.21-10.77A23.63,23.63,0,0,1,347.8,132a25.75,25.75,0,0,1,14.94,4.25,20.13,20.13,0,0,1,8.18,10.69q2,6.47,2,21.92Zm54.26-39.27v26H413.82V264.45H391.31V160.68H378v-26Zm27.64,0V264.45H432.31V134.71Zm9,0H502v26H486.36v24.6h13.9V210h-13.9v54.49H463.85Zm93.93,0-16.41,82.78v47H520.52v-47l-15.83-82.78h20.68q4.85,38,5.46,51.13,1.88-20.76,6.27-51.13Z"/></clipPath></defs><g id="Layer_2" data-name="Layer 2"><g id="Layer_1-2" data-name="Layer 1"><path class="cls-2" d="M31.06,134.83v86.71q0,19.47-.27,25a25.64,25.64,0,0,1-2.44,10.06,12.47,12.47,0,0,1-5.89,6.21q-3.71,1.72-11.19,1.72H0V241.89a28.18,28.18,0,0,0,2.94.24,4.57,4.57,0,0,0,3.8-1.76A7.86,7.86,0,0,0,8.34,236c.14-1.7.21-5,.21-9.93V134.83Z" transform="translate(0 7.31)"/><path class="cls-2" d="M91.2,210.8q0,19.56-.62,27.69a41,41,0,0,1-3.85,14.86A24.79,24.79,0,0,1,78,263.69a22.82,22.82,0,0,1-12.83,3.61,23.34,23.34,0,0,1-12.48-3.41,24.14,24.14,0,0,1-8.9-10.22,40.52,40.52,0,0,1-4-14.82q-.65-8-.64-28V188.6q0-19.54.62-27.68a41.14,41.14,0,0,1,3.84-14.87,24.89,24.89,0,0,1,8.74-10.33,22.84,22.84,0,0,1,12.83-3.61,23.35,23.35,0,0,1,12.49,3.41,24.17,24.17,0,0,1,8.9,10.21,40.58,40.58,0,0,1,4,14.83q.63,8,.64,28ZM68.69,168.17q0-9.06-.67-11.58c-.44-1.68-1.36-2.52-2.75-2.52a2.94,2.94,0,0,0-2.7,2q-.93,2-.93,12.06v60.58c0,7.54.2,12.18.61,13.95s1.36,2.64,2.86,2.64,2.51-1,2.94-3,.64-6.87.64-14.51Z" transform="translate(0 7.31)"/><path class="cls-2" d="M99.59,134.83H122q10.65,0,16.12,2.49T147,147.37q3.36,7.56,3.37,24.38,0,11.37-2.38,15.86t-9.38,6.88q7.8,2.65,10.58,8.78T152,222.08v12q0,13.16-2,19.49t-6.39,8.66q-4.38,2.33-18,2.32h-26ZM122.1,157v28.85c1,0,1.71-.08,2.24-.08q3.31,0,4.23-2.44t.9-14a33.15,33.15,0,0,0-.74-8.53c-.5-1.63-1.15-2.66-2-3.09A12.16,12.16,0,0,0,122.1,157Zm0,49v36.31q4.75-.24,6.07-2.25c.87-1.33,1.3-4.62,1.3-9.85V218.17c0-5.55-.39-8.92-1.17-10.09S125.45,206.23,122.1,206.07Z" transform="translate(0 7.31)"/><path class="cls-2" d="M211.53,264.57v15.71h-17c-4.1,0-7-.47-8.66-1.42a7.18,7.18,0,0,1-3.39-4.22c-.59-1.87-.88-5.22-.88-10.07a18.78,18.78,0,0,1-13.15-6,28.22,28.22,0,0,1-7.28-14.46q-1.75-8.78-1.76-26.25V177.71a146.61,146.61,0,0,1,1-20.16,40.41,40.41,0,0,1,4.31-13.06,23.33,23.33,0,0,1,8.39-9.26,21.5,21.5,0,0,1,11.39-3.12A24.12,24.12,0,0,1,198,136a24.44,24.44,0,0,1,8.82,9.78,40.33,40.33,0,0,1,3.8,12.3,151.37,151.37,0,0,1,.88,18.94v42.14q0,17.29-1.12,23.47A18.38,18.38,0,0,1,197.58,258q.16,4.35,1.2,5.49c.7.75,2.34,1.12,4.95,1.12ZM189,168.17q0-9.06-.67-11.58c-.44-1.68-1.36-2.52-2.75-2.52a2.94,2.94,0,0,0-2.7,2q-.93,2-.93,12.06v60.58c0,7.54.2,12.18.61,13.95s1.36,2.64,2.86,2.64,2.51-1,2.94-3,.64-6.87.64-14.51Z" transform="translate(0 7.31)"/><path class="cls-2" d="M271,134.83v86.71q0,14.75-.64,20.72a35.9,35.9,0,0,1-3.8,12.26,23.14,23.14,0,0,1-8.31,9.53,22.3,22.3,0,0,1-12.16,3.25,24.57,24.57,0,0,1-13.69-3.85,24.12,24.12,0,0,1-8.87-10,36.69,36.69,0,0,1-3.48-13q-.53-6.85-.53-28.81V134.83h22.51v97.29q0,8.49.61,10.86c.41,1.57,1.24,2.36,2.49,2.36,1.42,0,2.34-.87,2.75-2.6s.61-5.84.61-12.3V134.83Z" transform="translate(0 7.31)"/><path class="cls-2" d="M279.74,134.83h37.53v26h-15v24.6h14.06v24.68H302.25v28.53h16.52v26h-39Z" transform="translate(0 7.31)"/><path class="cls-2" d="M372.92,174.1H352v-9.62q0-6.72-.8-8.57a2.75,2.75,0,0,0-2.68-1.84c-1.35,0-2.37.83-3.07,2.48a20.71,20.71,0,0,0-1,7.54,30.89,30.89,0,0,0,1.17,9.78q1.13,3.3,6.36,7.94,15,13.37,18.93,21.94t3.9,27.65q0,13.86-2.16,20.43a21.87,21.87,0,0,1-8.37,11,25.7,25.7,0,0,1-29.86-.68A23.71,23.71,0,0,1,326,249.11q-2-7.94-2-22.52v-8.5H345v15.79c0,4.86.3,8,.88,9.38a3.15,3.15,0,0,0,3.13,2.08c1.5,0,2.61-.88,3.34-2.64a21.57,21.57,0,0,0,1.1-7.86q0-11.46-2.09-15t-10.53-11.78q-8.39-8.34-11.12-12.1a32.2,32.2,0,0,1-4.51-10.42,66.62,66.62,0,0,1-1.79-17q0-14.91,2.53-21.8A21.86,21.86,0,0,1,334.11,136a23.63,23.63,0,0,1,13.69-3.89,25.75,25.75,0,0,1,14.94,4.25,20.13,20.13,0,0,1,8.18,10.69q2,6.47,2,21.92Z" transform="translate(0 7.31)"/><path class="cls-2" d="M427.18,134.83v26H413.82V264.57H391.31V160.8H378v-26Z" transform="translate(0 7.31)"/><path class="cls-2" d="M454.82,134.83V264.57H432.31V134.83Z" transform="translate(0 7.31)"/><path class="cls-2" d="M463.85,134.83H502v26H486.36v24.6h13.9v24.68h-13.9v54.49H463.85Z" transform="translate(0 7.31)"/><path class="cls-2" d="M557.78,134.83l-16.41,82.78v47H520.52v-47l-15.83-82.78h20.68q4.85,38,5.46,51.13,1.88-20.76,6.27-51.13Z" transform="translate(0 7.31)"/><g class="cls-3"><image width="700" height="1080" transform="translate(113.82 0) scale(0.32)" xlink:href="../../../Users/lenovo/Downloads/image%20(1).png"/></g></g></g></svg>